<svg xmlns="http://www.w3.org/2000/svg" xmlns:xlink="http://www.w3.org/1999/xlink" version="1.1">

  <symbol id="location" viewBox="0 0 18 18">
    <path d="M9 1.5C6.0975 1.5 3.75 3.8475 3.75 6.75C3.75 10.6875 9 16.5 9 16.5C9 16.5 14.25 10.6875 14.25 6.75C14.25 3.8475 11.9025 1.5 9 1.5ZM9 8.625C8.50272 8.625 8.02581 8.42746 7.67417 8.07582C7.32254 7.72419 7.125 7.24728 7.125 6.75C7.125 6.25272 7.32254 5.7758 7.67417 5.42417C8.02581 5.07254 8.50272 4.875 9 4.875C9.49728 4.875 9.97419 5.07254 10.3258 5.42417C10.6775 5.7758 10.875 6.25272 10.875 6.75C10.875 7.24728 10.6775 7.72419 10.3258 8.07582C9.97419 8.42746 9.49728 8.625 9 8.625Z" />
  </symbol>

  <symbol id="phone" viewBox="0 0 18 18">
    <path d="M14.2612 11.782L16.7357 14.2566C17.072 14.5929 17.072 15.1381 16.7357 15.4745C14.9174 17.2927 12.0389 17.4973 9.98174 15.9544L8.59225 14.9123C6.88031 13.6284 5.35955 12.1076 4.07559 10.3957L3.03347 9.00619C1.49063 6.94906 1.6952 4.0705 3.51346 2.25224C3.84978 1.91592 4.39505 1.91592 4.73136 2.25223L7.20589 4.72677C7.58934 5.11022 7.58934 5.73191 7.20589 6.11536L6.26795 7.05331C6.11468 7.20657 6.07668 7.44072 6.17362 7.63459C7.29435 9.87606 9.11186 11.6936 11.3533 12.8143C11.5472 12.9112 11.7813 12.8732 11.9346 12.72L12.8726 11.782C13.256 11.3986 13.8777 11.3986 14.2612 11.782Z" />
  </symbol>

  <symbol id="chevron" viewBox="0 0 18 18">
    <path d="M14.2868 5.06736L15.6389 6.41942L9.32048 12.7378L7.96841 11.3857L14.2868 5.06736Z" />
    <path d="M10.6727 11.3191L9.31921 12.6725L3.00013 6.35345L4.35358 5L10.6727 11.3191Z" />
  </symbol>

  <symbol id="cart" viewBox="0 0 24 24">
    <path d="M2.25 3C2.25 2.58579 2.58579 2.25 3 2.25H4.38197C5.04482 2.25 5.65078 2.6245 5.94721 3.21738L5.27639 3.55279L5.94721 3.21738L6.46353 4.25H20.1384C21.0982 4.25 21.6999 5.28685 21.2237 6.12017L17.9391 11.8682C17.6275 12.4135 17.0477 12.75 16.4197 12.75H8.91567L7.59225 14.8675C7.48818 15.034 7.60789 15.25 7.80425 15.25H19C19.4142 15.25 19.75 15.5858 19.75 16C19.75 16.4142 19.4142 16.75 19 16.75H7.80425C6.42974 16.75 5.59176 15.2381 6.32025 14.0725L7.67159 11.9103L5.30898 5.295L4.60557 3.8882C4.56322 3.8035 4.47666 3.75 4.38197 3.75H3C2.58579 3.75 2.25 3.41421 2.25 3ZM7.06427 5.75L9.02855 11.25H16.4197C16.5094 11.25 16.5922 11.2019 16.6368 11.124L19.7076 5.75H7.06427ZM10 19.5C10 20.3284 9.32843 21 8.5 21C7.67157 21 7 20.3284 7 19.5C7 18.6716 7.67157 18 8.5 18C9.32843 18 10 18.6716 10 19.5ZM17.5 21C18.3284 21 19 20.3284 19 19.5C19 18.6716 18.3284 18 17.5 18C16.6716 18 16 18.6716 16 19.5C16 20.3284 16.6716 21 17.5 21Z" />
  </symbol>

</svg>