<svg xmlns="http://www.w3.org/2000/svg" style="display: none;">

  <symbol  id="behance" viewBox="0 0 24 24">
    <path d="M8.228 15.01h-2.228v-2.01h2.261c1.878 0 2.003 2.01-.033 2.01zm6.758-2.677h3.018c-.117-1.715-2.73-1.977-3.018 0zm-6.804-3.333h-2.182v2h2.389c1.673 0 1.937-2-.207-2zm15.818-4v14c0 2.761-2.238 5-5 5h-14c-2.762 0-5-2.239-5-5v-14c0-2.761 2.238-5 5-5h14c2.762 0 5 2.239 5 5zm-10 3h5v-1h-5v1zm-3.552 3.618c1.907-.974 1.837-4.55-1.813-4.604h-4.635v9.978h4.311c4.522 0 4.445-4.534 2.137-5.374zm9.487.602c-.274-1.763-1.528-2.95-3.583-2.95-2.094 0-3.352 1.34-3.352 3.947 0 2.631 1.367 3.783 3.416 3.783s3.106-1.135 3.4-2h-2.111c-.736.855-2.893.521-2.767-1.353h5.06c.01-.634-.012-1.089-.063-1.427z"/>
  </symbol>

  <symbol id="artstation" viewBox="0 0 24 24">
    <path d="M0 17.2871L2.0189 20.7805C2.42722 21.5744 3.24386 22.1189 4.17391 22.1189H17.6257L14.8355 17.2871H0Z" />
    <path d="M24 17.31C24 16.8336 23.8638 16.38 23.6143 15.9943L15.7202 2.29301C15.3119 1.52174 14.5179 1 13.5879 1H9.41394L21.5954 22.0964L23.5236 18.7618C23.8865 18.1267 24 17.8544 24 17.31Z" />
    <path d="M12.862 13.8393L7.44045 4.42529L1.99622 13.8393H12.862Z" />
  </symbol>

  <symbol id="dprofile" viewBox="0 0 24 24">
    <path fill-rule="evenodd" clip-rule="evenodd" d="M21.9516 0H2.052C1.50778 0 0.985842 0.216192 0.601014 0.601014C0.216192 0.985842 0 1.50778 0 2.052V21.948C0 22.4922 0.216192 23.0141 0.601014 23.399C0.985842 23.7838 1.50778 24 2.052 24H21.9516C22.4952 23.999 23.0162 23.7824 23.4002 23.3977C23.7843 23.013 24 22.4916 24 21.948V2.052C24 1.5084 23.7843 0.987012 23.4002 0.602286C23.0162 0.217567 22.4952 0.000953688 21.9516 0ZM22.4076 15.4356C22.4063 17.2831 21.6715 19.0545 20.3645 20.3603C19.0576 21.6661 17.2855 22.3995 15.438 22.3992H8.5776C6.73044 22.3992 4.95886 21.6655 3.65253 20.3596C2.3462 19.0535 1.61208 17.2822 1.6116 15.435V8.5608C1.61152 7.64604 1.79165 6.74022 2.14172 5.89511C2.49178 5.05 3.00491 4.28212 3.65179 3.63534C4.29868 2.98857 5.06664 2.47558 5.91182 2.12566C6.75702 1.77574 7.66284 1.59577 8.5776 1.596H15.453C17.3005 1.59632 19.0723 2.33008 20.379 3.63604C21.6857 4.942 22.4206 6.71334 22.422 8.5608L22.4064 15.435L22.4076 15.4356Z" />
  </symbol>

  <symbol id="illustrators" viewBox="0 0 22 24">
    <path d="M11.8967 1.36337C12.7618 0.963764 13.0189 0.070519 12.1305 0C11.9669 0 11.8032 0.070519 11.7331 0.235064C11.5928 0.634671 11.4992 1.36337 11.8967 1.36337Z" />
    <path d="M18.8404 12.1997C18.7936 12.1997 18.7469 12.1997 18.7469 12.1997C18.3494 12.1997 17.952 10.6013 18.0221 10.3427C18.6066 8.9088 20.4068 9.07334 21.1316 9.12035C21.2952 9.14388 21.4121 9.14388 21.4355 9.12035C22.5577 8.4857 21.2017 6.86376 20.7108 7.92152V8.1566C20.2432 8.55623 17.6948 9.68452 17.0402 9.44944C15.9647 9.02634 16.105 8.13313 16.1985 7.52195C16.2219 7.33387 16.2687 7.14585 16.2453 7.02831C16.1985 6.76975 15.9647 6.88724 15.8011 6.98131C15.7543 7.05178 15.6842 7.09885 15.6375 7.05178L15.4738 6.88724C15.8712 5.92349 16.5025 5.03026 17.461 4.23105C17.5311 4.16053 17.6714 4.09001 17.7884 4.01949C17.9053 3.94897 18.0221 3.90195 18.1156 3.80793C17.9987 2.65612 17.3207 3.6904 16.9233 4.27806C16.8298 4.4426 16.7362 4.56013 16.6895 4.60714C16.5492 4.74818 16.4323 4.88922 16.2921 5.00676C15.6842 5.71195 15.1464 6.27611 14.2814 6.34659C13.9775 6.13504 14.1879 5.9705 14.4451 5.78246C14.5853 5.68844 14.7022 5.57091 14.7724 5.47688C14.4451 5.14779 14.2113 5.50039 13.9775 5.80597C13.8138 6.04103 13.6502 6.25258 13.4866 6.18205C13.4164 6.11157 13.4164 6.11157 13.4164 5.94702C13.4164 5.50039 13.9073 5.05377 14.3749 4.65416C14.5853 4.46611 14.7958 4.27806 14.9361 4.11351C14.9828 4.0665 15.0296 3.99598 15.0763 3.94897C15.5205 3.36131 15.9647 2.77365 15.731 2.18599C15.6842 2.11547 15.6608 2.09197 15.6375 2.04495C15.6141 1.99794 15.5907 1.97443 15.5673 1.92742C14.9828 1.80989 15.0529 2.49157 15.0763 2.91469C15.0997 3.05573 15.0997 3.17325 15.0763 3.22027C15.0296 3.43183 14.5386 3.83143 14.1178 4.16053C13.9073 4.32507 13.7437 4.46611 13.6268 4.58364C13.393 4.8187 13.2761 5.05377 13.1592 5.26532C13.0657 5.42987 12.9722 5.61792 12.8319 5.78246C12.6449 5.71195 12.5514 5.66493 12.4111 5.5474C12.3643 5.5239 12.3175 5.47688 12.2708 5.45338C11.1486 4.56013 11.6395 3.12624 12.2007 2.16249C12.2007 2.09197 12.037 1.92742 11.8734 1.83339C11.6395 1.76287 11.2421 1.99794 11.1486 2.30352C11.1486 2.35053 11.2655 2.56209 11.359 2.75014C11.4058 2.82066 11.4291 2.89118 11.4525 2.9382C11.5226 3.26728 11.0551 4.86572 10.4238 5.03026C10.2602 5.05377 10.0965 5.05377 9.90946 5.03026C9.6523 5.00676 9.37174 4.98325 9.13796 5.12428C9.04446 5.1713 8.92757 5.38285 8.81062 5.59442C8.57684 5.99403 8.29629 6.46413 8.03912 6.41713C7.478 6.32312 7.66506 5.94702 7.82873 5.61792C7.92223 5.42987 8.01573 5.24182 7.96901 5.12428C7.40789 4.13702 6.82339 5.61792 6.47272 6.51114C6.35583 6.76975 6.28566 6.98131 6.23894 7.05178C5.60767 7.94505 4.08801 9.21442 3.12946 9.14388H2.03062C2.03062 9.19089 2.00724 9.21442 1.98387 9.26142C1.96049 9.30843 1.9371 9.3319 1.9371 9.37896C1.96049 9.42597 2.00724 9.44944 2.03062 9.49645C2.35793 9.89608 2.75538 10.3897 2.1709 10.7423C1.9371 10.6718 1.30587 10.6718 1.14221 10.7423C1.11883 10.7893 1.18896 10.8834 1.2591 11.0244C1.46952 11.3535 1.79683 11.8941 1.04869 12.1057L0.885035 12.1762C0.861657 12.1997 0.744756 12.1762 0.62786 12.1292C0.323929 12.0587 -0.0969003 11.9411 0.0199964 12.3172C0.136893 12.7638 0.510964 12.6698 0.885035 12.5758C1.32924 12.4583 1.77345 12.3643 1.84359 13.0459V13.1635C1.79683 13.328 1.65655 13.3515 1.51628 13.3515C1.44614 13.3515 1.376 13.375 1.28248 13.3986C-0.821662 14.0802 1.11883 15.5141 1.75007 15.9842C1.86697 16.0548 1.9371 16.1252 1.9371 16.1252C2.03062 16.5249 1.72669 16.713 1.42276 16.8774C1.23573 16.995 1.07207 17.0891 0.978552 17.2301C0.814895 17.4651 1.6098 18.0293 1.84359 18.1938C1.98387 18.3349 2.00724 18.4289 2.03062 18.5229C2.054 18.5934 2.07738 18.664 2.14752 18.758C2.19428 18.805 2.21766 18.8285 2.24104 18.8285C2.26442 18.8285 2.2878 18.8285 2.31118 18.8285C2.66186 18.8285 2.82552 18.7815 3.01256 18.711C3.03594 18.711 4.62574 19.5572 4.46208 19.9568C4.53222 20.1214 4.53222 20.2859 4.53222 20.3564C4.48546 20.6385 4.34518 20.9441 4.2049 21.2497C4.06463 21.5552 3.92435 21.8608 3.8776 22.1429C3.90097 22.0959 3.92435 22.0724 3.94774 22.0019C4.13477 21.6022 4.48546 20.85 4.92967 20.7795C5.44401 20.85 5.2336 21.1556 4.97643 21.5082C4.71925 21.8608 4.41532 22.2604 4.78939 22.5425C4.85953 22.5425 5.02318 22.472 5.1167 22.378C5.14008 22.3545 5.14008 22.2369 5.14008 22.1194C5.14008 21.6493 5.16346 20.85 5.9116 21.3437C6.54283 21.7198 6.35583 21.9548 6.14538 22.2134C5.95838 22.4485 5.72457 22.7306 6.07527 23.2007C6.44933 23.3417 6.54283 23.1067 6.65972 22.8246C6.75327 22.613 6.87016 22.3779 7.10394 22.2369C7.52478 22.1899 7.78195 22.613 7.99234 22.9656C8.15601 23.2242 8.29629 23.4358 8.45995 23.4358C8.78729 23.4122 8.9509 23.2477 9.09118 23.1301C9.32502 22.9186 9.51202 22.754 10.1199 23.0361C10.3537 23.2007 10.5174 23.4358 10.4472 23.6708C10.5641 23.6238 10.7044 23.4592 10.8446 23.3182C10.9615 23.1772 11.0785 23.0361 11.172 23.0361C12.1071 22.8011 12.1539 23.3888 12.1539 23.7649C12.1539 23.8823 12.1539 23.9764 12.2007 23.9999V23.9294L12.3643 23.5298C12.5514 22.4015 13.2293 22.707 13.8372 22.9891C14.2113 23.1771 14.562 23.3417 14.749 23.1067C14.749 22.9421 14.6321 22.7306 14.5152 22.519C14.3983 22.3309 14.3048 22.1429 14.3516 22.0724C14.7958 20.3564 15.8011 20.9676 16.5726 21.4612C16.8765 21.6493 17.1805 21.8373 17.3675 21.8373L17.5311 21.6728C17.4844 21.2967 17.274 21.0851 17.087 20.897C16.9467 20.756 16.8064 20.5915 16.7362 20.3799C16.4323 19.4396 17.4844 19.4396 18.1156 19.4632C18.3494 19.4632 18.5131 19.4632 18.5599 19.4162C19.495 18.758 19.2145 18.0293 18.9807 17.3711C18.8638 17.0655 18.7703 16.7834 18.7936 16.5249C18.7936 16.4543 18.8638 16.1958 19.0274 16.1958C19.0508 16.1723 19.0976 16.1488 19.121 16.1488C19.1911 16.1252 19.2846 16.1018 19.3314 15.9607C19.3314 15.9137 19.2613 15.8667 19.1911 15.7962C19.121 15.7257 19.0508 15.6551 19.004 15.5611C19.004 15.3731 19.2613 15.232 19.4483 15.138C19.5885 15.0675 19.7054 14.997 19.7054 14.9264C19.7054 14.9264 19.7054 14.8559 19.6353 14.7619C19.6353 14.7384 19.6353 14.7149 19.6353 14.6914C19.6353 14.6679 19.6119 14.6444 19.5651 14.5973C19.5184 14.5503 19.5184 14.5268 19.5184 14.5268C19.5184 14.5033 19.5184 14.4798 19.4716 14.4563L19.4015 14.3858C19.2846 14.2918 19.1911 14.2448 19.121 14.1978C18.9807 14.1272 18.9339 14.1037 18.7703 13.6571C18.7001 13.4456 18.817 13.234 18.8871 13.0929C18.9105 13.0695 18.9105 13.0459 18.9339 13.0224C19.2613 12.2937 19.7756 12.6228 20.36 12.9989C20.9212 13.3515 21.5057 13.7276 21.9732 13.1869C22.1603 11.9882 19.4249 12.1527 18.8404 12.1997Z" />
  </symbol>

</svg>